<svg width="53" height="17" viewBox="0 0 53 17" fill="none" xmlns="http://www.w3.org/2000/svg">
<path d="M48.6461 1.15247H45.3942C44.3865 1.15247 43.6177 1.43297 43.1813 2.43034L36.9269 16.6013H41.3528C41.3528 16.6013 42.08 14.7001 42.2462 14.2845H47.6487C47.7838 14.8248 48.1578 16.6013 48.1578 16.6013H52.0746L48.6461 1.15247ZM43.4514 11.1262C43.7942 10.2327 45.1137 6.80424 45.1137 6.80424C45.1137 6.80424 45.4773 5.88999 45.6851 5.32896L45.9656 6.66918C45.9656 6.66918 46.7864 10.347 46.9422 11.1262H43.4514Z" fill="white"/>
<path d="M31.3167 5.43285C31.3063 6.1601 32.2206 6.63802 33.6855 7.35488C36.1166 8.45615 37.2386 9.79637 37.2178 11.5625C37.1866 14.7728 34.3192 16.8403 29.883 16.8403C28.0025 16.8195 26.174 16.4351 25.1974 16.0196L25.7896 12.5495L26.3298 12.7989C27.7012 13.3703 28.6051 13.6092 30.2985 13.6092C31.5037 13.6092 32.8024 13.1313 32.8128 12.1028C32.8232 11.4171 32.2725 10.9288 30.631 10.1704C29.031 9.43273 26.9116 8.19641 26.9324 5.9731C26.9532 2.97059 29.8934 0.871948 34.0491 0.871948C35.6802 0.871948 36.9996 1.20441 37.8308 1.52648L37.2594 4.87184L36.8854 4.69522C36.1062 4.38354 35.1088 4.08224 33.7374 4.10302C32.0855 4.10302 31.3167 4.7991 31.3167 5.43285Z" fill="white"/>
<path d="M25.1974 1.14209L22.5481 16.591H18.3509L20.9794 1.14209H25.1974Z" fill="white"/>
<path d="M10.0706 9.10059C8.66806 5.52667 5.31233 2.55535 0.221573 1.31902L0.273523 1.00734H6.80838C7.69147 1.03851 8.39795 1.31901 8.64729 2.26443L10.0706 9.10059Z" fill="white"/>
<path d="M19.2755 1.15247L12.6368 16.5806H8.17977L4.40845 3.69785C7.12006 5.43286 9.42648 8.18603 10.2368 10.0977L10.6836 11.6872L14.8082 1.14209H19.2755V1.15247Z" fill="white"/>
</svg>
